<svg xmlns="http://www.w3.org/2000/svg" viewBox="0 0 400 308" fill="none" aria-hidden="true">
  <rect width="400" height="308" fill="#006b38"/>
  <g opacity="0.32">
    <rect x="228" y="40" width="148" height="196" rx="8" fill="#ffffff" transform="rotate(6 228 40)"/>
    <rect x="246" y="62" width="108" height="8" rx="4" fill="#7fd4a8" transform="rotate(6 246 62)"/>
    <rect x="246" y="82" width="96" height="6" rx="3" fill="#9fe0bc" transform="rotate(6 246 82)"/>
    <rect x="246" y="96" width="104" height="6" rx="3" fill="#9fe0bc" transform="rotate(6 246 96)"/>
    <rect x="246" y="110" width="88" height="6" rx="3" fill="#9fe0bc" transform="rotate(6 246 110)"/>
    <rect x="246" y="124" width="100" height="6" rx="3" fill="#9fe0bc" transform="rotate(6 246 124)"/>
    <path d="M270 182c18 8 36 8 54 0" stroke="#7fd4a8" stroke-width="3" stroke-linecap="round" transform="rotate(6 270 182)"/>
    <rect x="208" y="56" width="148" height="196" rx="8" fill="#f7fbf9"/>
    <rect x="226" y="78" width="108" height="8" rx="4" fill="#007a3d"/>
    <rect x="226" y="98" width="96" height="6" rx="3" fill="#5fbf8f"/>
    <rect x="226" y="112" width="104" height="6" rx="3" fill="#5fbf8f"/>
    <rect x="226" y="126" width="88" height="6" rx="3" fill="#5fbf8f"/>
    <rect x="226" y="140" width="100" height="6" rx="3" fill="#5fbf8f"/>
    <rect x="226" y="154" width="92" height="6" rx="3" fill="#5fbf8f"/>
    <rect x="226" y="168" width="80" height="6" rx="3" fill="#5fbf8f"/>
    <path d="M250 210c16 10 34 10 50 0" stroke="#007a3d" stroke-width="3" stroke-linecap="round"/>
    <path d="M300 202l8 10 16-18" stroke="#00b050" stroke-width="3" stroke-linecap="round" stroke-linejoin="round"/>
  </g>
</svg>
